<svg xmlns="http://www.w3.org/2000/svg" viewBox="0 0 900 520">
  <defs><linearGradient id="g" x1="0" y1="0" x2="1" y2="1"><stop stop-color="#080706"/><stop offset="1" stop-color="#171006"/></linearGradient><radialGradient id="r" cx="42%" cy="44%" r="64%"><stop stop-color="#d7b56d" stop-opacity=".28"/><stop offset="1" stop-opacity="0"/></radialGradient></defs>
  <rect width="900" height="520" fill="url(#g)"/><rect width="900" height="520" fill="url(#r)"/>
  <g stroke="#d7b56d" stroke-opacity=".14"><path d="M0 92h900M0 184h900M0 276h900M0 368h900M0 460h900"/><path d="M92 0v520M184 0v520M276 0v520M368 0v520M460 0v520M552 0v520M644 0v520M736 0v520M828 0v520"/></g>
  <g transform="translate(122 106) scale(.78)" fill="none" stroke="#f2d58a" stroke-width="8" opacity=".86">
    <circle cx="160" cy="160" r="128"/><circle cx="160" cy="160" r="88"/>
    <path d="M94 176c46-54 88-108 126-164"/>
    <path d="M92 132c54 34 104 36 154 6"/>
    <path d="M86 214c66 28 126 18 186-28"/>
    <path d="M160 76v166"/>
    <text x="160" y="148" text-anchor="middle" fill="#f2d58a" stroke="none" font-family="Arial, Helvetica, sans-serif" font-size="48" font-weight="800">SWU</text>
    <text x="160" y="204" text-anchor="middle" fill="#d7b56d" stroke="none" font-family="Arial, Helvetica, sans-serif" font-size="38" font-weight="800">1906</text>
  </g>
  <text x="520" y="190" fill="#f2d58a" font-family="Arial, Helvetica, sans-serif" font-size="58" font-weight="800">SWU</text>
  <text x="520" y="242" fill="#b7a06d" font-family="Arial, Helvetica, sans-serif" font-size="22" font-weight="700">SOUTHWEST UNIVERSITY · 211</text>
</svg>
